<?xml version="1.0" encoding="utf-8"?>
<!-- Generator: Adobe Illustrator 24.3.0, SVG Export Plug-In . SVG Version: 6.00 Build 0)  -->
<svg version="1.1" id="Lag_1" xmlns="http://www.w3.org/2000/svg" xmlns:xlink="http://www.w3.org/1999/xlink" x="0px" y="0px"
	 viewBox="0 0 397.93 68.93" style="enable-background:new 0 0 397.93 68.93;" xml:space="preserve">
<style type="text/css">
	.st0{fill:#FFFFFF;}
</style>
<g>
	<path class="st0" d="M4.32,64.69V4.63h20.9c9.9,0,17.82,2.72,23.74,8.17s8.89,12.71,8.89,21.78c0,9.08-2.95,16.36-8.85,21.86
		c-5.9,5.5-13.83,8.25-23.78,8.25H4.32z M17.26,53.4l8.05-0.04c6.14,0,10.92-1.59,14.33-4.76c3.39-3.15,5.08-7.79,5.08-13.93
		c0-6.22-1.7-10.9-5.08-14.05c-3.42-3.18-8.19-4.76-14.33-4.76h-8.05V53.4z"/>
	<path class="st0" d="M108.5,64.69l-4.68-11.89H77.75l-4.68,11.89H58.98L83.84,4.67h14.01l24.74,60.02H108.5z M82.04,42.07h17.62
		L90.81,19.6L82.04,42.07z"/>
	<path class="st0" d="M184.66,48.43l0.12,0.12c-2.14,5.23-5.66,9.42-10.57,12.57c-4.94,3.18-10.9,4.76-17.9,4.76
		c-9.21,0-16.87-2.95-22.98-8.85c-6.09-5.87-9.13-13.31-9.13-22.3c0-8.86,3.04-16.23,9.13-22.1c6.11-5.9,13.75-8.85,22.9-8.85
		c6.99,0,12.93,1.6,17.82,4.8c4.91,3.2,8.42,7.37,10.53,12.49l-11.97,4.84c-1.52-2.99-3.68-5.42-6.49-7.29
		c-2.83-1.9-6.11-2.84-9.85-2.84c-5.34,0-9.84,1.8-13.49,5.41c-3.63,3.6-5.45,8.1-5.45,13.49c0,5.34,1.83,9.86,5.49,13.57
		c3.63,3.68,8.11,5.53,13.45,5.53c3.95,0,7.35-0.97,10.21-2.92c2.88-1.95,4.92-4.39,6.13-7.33L184.66,48.43z"/>
	<path class="st0" d="M231.91,4.67h13.01v60.02h-13.01V40.43h-26.27v24.26h-12.93V4.67h12.93v24.5h26.27V4.67z"/>
	<path class="st0" d="M321.63,4.67v60.02h-13.01V26.05l-16.9,28.55h-4.28l-16.98-28.63v38.72h-12.93V4.67h14.09l17.94,29.83
		l17.98-29.83H321.63z"/>
	<path class="st0" d="M377.77,64.69l-4.68-11.89h-26.07l-4.68,11.89h-14.09L353.1,4.67h14.01l24.74,60.02H377.77z M351.3,42.07
		h17.62l-8.85-22.46L351.3,42.07z"/>
</g>
</svg>
